<svg width="20" height="20" viewBox="0 0 20 20" fill="none" xmlns="http://www.w3.org/2000/svg">
<path d="M5.02316 7.19382L5.62641 7.35727H5.62641L5.02316 7.19382ZM8.46532 3.58519L8.27259 2.99064V2.99064L8.46532 3.58519ZM4.98581 7.3317L4.38256 7.16825H4.38256L4.98581 7.3317ZM4.82463 10.7229L5.44067 10.6174V10.6174L4.82463 10.7229ZM4.84339 10.8324L4.22735 10.9379L4.22735 10.9379L4.84339 10.8324ZM5.23966 14.5476L5.36442 13.9352H5.36442L5.23966 14.5476ZM5.54599 14.61L5.67075 13.9976H5.67075L5.54599 14.61ZM14.454 14.61L14.3292 13.9976L14.454 14.61ZM14.7603 14.5476L14.8851 15.1601L14.7603 14.5476ZM15.1602 10.8114L15.7762 10.9169V10.9169L15.1602 10.8114ZM15.1801 10.6952L14.5641 10.5897L15.1801 10.6952ZM15.0348 7.3552L14.4302 7.51381V7.51381L15.0348 7.3552ZM14.9827 7.15696L15.5873 6.99835V6.99835L14.9827 7.15696ZM11.6392 3.59031L11.8352 2.99684L11.6392 3.59031ZM15.2942 11.084L14.989 11.6294L15.2942 11.084ZM4.72331 11.0743L4.424 10.5257L4.72331 11.0743ZM10.625 2.5C10.625 2.15482 10.3452 1.875 10 1.875C9.65482 1.875 9.375 2.15482 9.375 2.5H10H10.625ZM9.375 3.33728C9.375 3.68246 9.65482 3.96228 10 3.96228C10.3452 3.96228 10.625 3.68246 10.625 3.33728H10H9.375ZM7.50758 14.9195L7.57741 14.2984L6.82963 14.2143L6.88423 14.9648L7.50758 14.9195ZM12.4924 14.9195L13.1158 14.9648L13.1704 14.2143L12.4226 14.2984L12.4924 14.9195ZM12.4168 15.3977L13.0237 15.5469L13.0237 15.5469L12.4168 15.3977ZM12.3485 15.6755L11.7416 15.5262V15.5262L12.3485 15.6755ZM10.5866 17.4308L10.732 18.0387H10.732L10.5866 17.4308ZM9.41343 17.4308L9.26802 18.0387L9.41343 17.4308ZM7.65152 15.6755L7.0446 15.8247L7.0446 15.8247L7.65152 15.6755ZM7.58321 15.3977L8.19013 15.2484V15.2484L7.58321 15.3977ZM5.02316 7.19382L5.62641 7.35727C6.03271 5.85776 7.18376 4.65762 8.65804 4.17973L8.46532 3.58519L8.27259 2.99064C6.39959 3.59778 4.93749 5.12014 4.41992 7.03037L5.02316 7.19382ZM4.98581 7.3317L5.58906 7.49515L5.62641 7.35727L5.02316 7.19382L4.41992 7.03037L4.38256 7.16825L4.98581 7.3317ZM4.82463 10.7229L5.44067 10.6174C5.26275 9.57822 5.3134 8.51251 5.58906 7.49515L4.98581 7.3317L4.38256 7.16825C4.0594 8.36094 4.00003 9.61019 4.2086 10.8283L4.82463 10.7229ZM4.84339 10.8324L5.45942 10.7269L5.44067 10.6174L4.82463 10.7229L4.2086 10.8283L4.22735 10.9379L4.84339 10.8324ZM3.75 12.717H4.375C4.375 12.2443 4.63654 11.8336 5.02262 11.623L4.72331 11.0743L4.424 10.5257C3.65062 10.9475 3.125 11.7709 3.125 12.717H3.75ZM5.23966 14.5476L5.36442 13.9352C4.79078 13.8184 4.375 13.3104 4.375 12.717H3.75H3.125C3.125 13.9006 3.95513 14.9238 5.1149 15.1601L5.23966 14.5476ZM5.54599 14.61L5.67075 13.9976L5.36442 13.9352L5.23966 14.5476L5.1149 15.1601L5.42122 15.2225L5.54599 14.61ZM14.454 14.61L14.3292 13.9976C11.4721 14.5797 8.52786 14.5797 5.67075 13.9976L5.54599 14.61L5.42122 15.2225C8.44299 15.8381 11.557 15.8381 14.5788 15.2225L14.454 14.61ZM14.7603 14.5476L14.6356 13.9352L14.3292 13.9976L14.454 14.61L14.5788 15.2225L14.8851 15.1601L14.7603 14.5476ZM16.25 12.717H15.625C15.625 13.3104 15.2092 13.8184 14.6356 13.9352L14.7603 14.5476L14.8851 15.1601C16.0449 14.9238 16.875 13.9006 16.875 12.717H16.25ZM15.2942 11.084L14.989 11.6294C15.3687 11.8419 15.625 12.2491 15.625 12.717H16.25H16.875C16.875 11.7804 16.3599 10.9641 15.5994 10.5386L15.2942 11.084ZM15.1801 10.6952L14.5641 10.5897L14.5442 10.7059L15.1602 10.8114L15.7762 10.9169L15.7961 10.8007L15.1801 10.6952ZM15.0348 7.3552L14.4302 7.51381C14.6936 8.51762 14.7392 9.56662 14.5641 10.5897L15.1801 10.6952L15.7961 10.8007C16.0014 9.60192 15.9479 8.37284 15.6393 7.19659L15.0348 7.3552ZM14.9827 7.15696L14.3782 7.31557L14.4302 7.51381L15.0348 7.3552L15.6393 7.19659L15.5873 6.99835L14.9827 7.15696ZM11.6392 3.59031L11.4432 4.18378C12.8852 4.66 13.9906 5.83812 14.3782 7.31557L14.9827 7.15696L15.5873 6.99835C15.0927 5.11328 13.6812 3.60649 11.8352 2.99684L11.6392 3.59031ZM8.46532 3.58519L8.65804 4.17973C9.56168 3.88682 10.544 3.88681 11.4432 4.18378L11.6392 3.59031L11.8352 2.99684C10.6809 2.6156 9.42619 2.6167 8.27259 2.99064L8.46532 3.58519ZM15.2942 11.084L15.5994 10.5386C15.7188 10.6054 15.805 10.749 15.7762 10.9169L15.1602 10.8114L14.5442 10.7059C14.4779 11.0928 14.6763 11.4544 14.989 11.6294L15.2942 11.084ZM4.84339 10.8324L4.22735 10.9379C4.19649 10.7576 4.28927 10.5991 4.424 10.5257L4.72331 11.0743L5.02262 11.623C5.33058 11.455 5.5237 11.1024 5.45942 10.7269L4.84339 10.8324ZM10 2.5H9.375V3.33728H10H10.625V2.5H10ZM7.50758 14.9195L7.43776 15.5406C9.14059 15.732 10.8594 15.732 12.5622 15.5406L12.4924 14.9195L12.4226 14.2984C10.8126 14.4794 9.18743 14.4794 7.57741 14.2984L7.50758 14.9195ZM12.4168 15.3977L13.0237 15.5469C13.0707 15.3557 13.1015 15.161 13.1158 14.9648L12.4924 14.9195L11.8691 14.8741C11.8599 15.0003 11.8401 15.1255 11.8099 15.2484L12.4168 15.3977ZM12.3485 15.6755L12.9554 15.8247L13.0237 15.5469L12.4168 15.3977L11.8099 15.2484L11.7416 15.5262L12.3485 15.6755ZM10.5866 17.4308L10.732 18.0387C11.8288 17.7763 12.6858 16.921 12.9554 15.8247L12.3485 15.6755L11.7416 15.5262C11.5831 16.1706 11.0804 16.67 10.4412 16.823L10.5866 17.4308ZM9.41343 17.4308L9.26802 18.0387C9.74927 18.1538 10.2507 18.1538 10.732 18.0387L10.5866 17.4308L10.4412 16.823C10.1511 16.8923 9.84891 16.8923 9.55884 16.823L9.41343 17.4308ZM7.65152 15.6755L7.0446 15.8247C7.31417 16.921 8.17124 17.7763 9.26802 18.0387L9.41343 17.4308L9.55884 16.823C8.9196 16.67 8.41688 16.1706 8.25844 15.5262L7.65152 15.6755ZM7.58321 15.3977L6.97629 15.5469L7.0446 15.8247L7.65152 15.6755L8.25844 15.5262L8.19013 15.2484L7.58321 15.3977ZM7.50758 14.9195L6.88423 14.9648C6.8985 15.161 6.92927 15.3557 6.97629 15.5469L7.58321 15.3977L8.19013 15.2484C8.1599 15.1255 8.14011 15.0003 8.13094 14.8741L7.50758 14.9195Z" fill="#212626"/>
</svg>
