<svg width="20" height="20" viewBox="0 0 20 20" fill="none" xmlns="http://www.w3.org/2000/svg">
<path d="M2.76311 11.4842L3.37159 11.3415L2.76311 11.4842ZM2.76311 6.93667L3.37159 7.0794L2.76311 6.93667ZM15.6578 6.93667L16.2663 6.79394L15.6578 6.93667ZM15.6578 11.4842L16.2663 11.6269L15.6578 11.4842ZM11.4842 15.6578L11.3415 15.0493L11.4842 15.6578ZM6.93667 15.6578L6.79394 16.2663L6.93667 15.6578ZM6.93667 2.76311L6.79394 2.15462L6.93667 2.76311ZM11.4842 2.76311L11.6269 2.15462L11.4842 2.76311ZM17.0581 17.9419C17.3021 18.186 17.6979 18.186 17.9419 17.9419C18.186 17.6979 18.186 17.3021 17.9419 17.0581L17.5 17.5L17.0581 17.9419ZM2.76311 11.4842L3.37159 11.3415C3.0428 9.93981 3.0428 8.48107 3.37159 7.0794L2.76311 6.93667L2.15462 6.79393C1.78179 8.38337 1.78179 10.0375 2.15462 11.6269L2.76311 11.4842ZM15.6578 6.93667L15.0493 7.0794C15.3781 8.48107 15.3781 9.93981 15.0493 11.3415L15.6578 11.4842L16.2663 11.6269C16.6391 10.0375 16.6391 8.38337 16.2663 6.79394L15.6578 6.93667ZM11.4842 15.6578L11.3415 15.0493C9.93981 15.3781 8.48107 15.3781 7.0794 15.0493L6.93667 15.6578L6.79394 16.2663C8.38337 16.6391 10.0375 16.6391 11.6269 16.2663L11.4842 15.6578ZM6.93667 2.76311L7.0794 3.37159C8.48107 3.0428 9.93981 3.0428 11.3415 3.37159L11.4842 2.76311L11.6269 2.15462C10.0375 1.78179 8.38337 1.78179 6.79394 2.15462L6.93667 2.76311ZM6.93667 15.6578L7.0794 15.0493C5.23964 14.6177 3.80314 13.1812 3.37159 11.3415L2.76311 11.4842L2.15462 11.6269C2.69459 13.9289 4.49198 15.7263 6.79394 16.2663L6.93667 15.6578ZM11.4842 15.6578L11.6269 16.2663C13.9289 15.7263 15.7263 13.9289 16.2663 11.6269L15.6578 11.4842L15.0493 11.3415C14.6177 13.1812 13.1812 14.6177 11.3415 15.0493L11.4842 15.6578ZM11.4842 2.76311L11.3415 3.37159C13.1812 3.80314 14.6177 5.23964 15.0493 7.0794L15.6578 6.93667L16.2663 6.79394C15.7263 4.49198 13.9289 2.69459 11.6269 2.15462L11.4842 2.76311ZM6.93667 2.76311L6.79394 2.15462C4.49198 2.69459 2.69459 4.49198 2.15462 6.79393L2.76311 6.93667L3.37159 7.0794C3.80314 5.23964 5.23964 3.80314 7.0794 3.37159L6.93667 2.76311ZM14.446 14.446L14.004 14.8879L17.0581 17.9419L17.5 17.5L17.9419 17.0581L14.8879 14.004L14.446 14.446Z" fill="#212626"/>
</svg>
