<svg width="25" height="25" viewBox="0 0 25 25" fill="none" xmlns="http://www.w3.org/2000/svg">
<path d="M8.40637 3.125V5.74348M16.5937 3.125V5.74348M3.99303 15.8838C3.53015 13.8643 3.53015 11.7625 3.99303 9.74295C4.63397 6.94651 6.76747 4.76303 9.49989 4.10708C11.4732 3.63335 13.5269 3.63335 15.5002 4.10708C18.2326 4.76303 20.3661 6.94651 21.0071 9.74295C21.4699 11.7625 21.4699 13.8643 21.0071 15.8838C20.3661 18.6803 18.2326 20.8638 15.5002 21.5197C13.5269 21.9934 11.4732 21.9934 9.49989 21.5197C6.76747 20.8638 4.63397 18.6803 3.99303 15.8838Z" stroke="#1B3ED7" stroke-width="1.5" stroke-linecap="round"/>
<path d="M10.4166 12.9167L11.9318 14.5833L14.5833 11.4583" stroke="#1B3ED7" stroke-width="1.25" stroke-linecap="round" stroke-linejoin="round"/>
</svg>
