<svg width="24" height="24" viewBox="0 0 24 24" fill="none" xmlns="http://www.w3.org/2000/svg">
<path d="M17.6704 8.66352C19.2131 9.7707 21.1031 10.4221 23.1443 10.4221V6.47864C22.758 6.47873 22.3727 6.43828 21.9947 6.35789V9.46198C19.9537 9.46198 18.064 8.81054 16.5208 7.70344V15.751C16.5208 19.7767 13.2702 23.04 9.26053 23.04C7.76444 23.04 6.37388 22.586 5.21875 21.8072C6.53715 23.1606 8.37575 24.0001 10.4098 24.0001C14.4197 24.0001 17.6705 20.7368 17.6705 16.7109V8.66352H17.6704ZM19.0885 4.68502C18.3 3.82024 17.7824 2.70269 17.6704 1.46718V0.959961H16.581C16.8552 2.53029 17.7905 3.87189 19.0885 4.68502ZM7.75485 18.7179C7.31434 18.138 7.0763 17.4287 7.07736 16.6993C7.07736 14.8581 8.56419 13.3652 10.3985 13.3652C10.7404 13.3651 11.0802 13.4177 11.406 13.5214V9.48982C11.0253 9.43744 10.641 9.4152 10.2569 9.42335V12.5614C9.93088 12.4576 9.59091 12.4049 9.24897 12.4052C7.41463 12.4052 5.92789 13.898 5.92789 15.7394C5.92789 17.0415 6.67105 18.1688 7.75485 18.7179Z" fill="#FF004F"/>
<path d="M16.5211 7.70336C18.0642 8.81046 19.9539 9.4619 21.995 9.4619V6.35781C20.8557 6.11417 19.8471 5.51643 19.0887 4.68502C17.7907 3.87181 16.8555 2.53021 16.5813 0.959961H13.7198V16.7107C13.7133 18.5469 12.229 20.0337 10.3986 20.0337C9.31999 20.0337 8.36174 19.5175 7.75486 18.7179C6.67115 18.1688 5.92798 17.0414 5.92798 15.7395C5.92798 13.8982 7.41472 12.4053 9.24906 12.4053C9.60052 12.4053 9.93926 12.4602 10.257 12.5615V9.42343C6.31781 9.50514 3.14974 12.7366 3.14974 16.7108C3.14974 18.6947 3.93866 20.4932 5.21909 21.8073C6.37422 22.586 7.76478 23.0401 9.26087 23.0401C13.2706 23.0401 16.5212 19.7767 16.5212 15.751V7.70336H16.5211Z" fill="black"/>
<path d="M21.9947 6.35784V5.51852C20.9673 5.52008 19.9601 5.23122 19.0885 4.68496C19.8601 5.5331 20.8762 6.1179 21.9947 6.35784ZM16.581 0.959989C16.5548 0.809916 16.5347 0.658855 16.5208 0.507217V0H12.5699V15.7509C12.5636 17.5869 11.0794 19.0737 9.2488 19.0737C8.71137 19.0737 8.20396 18.9456 7.7546 18.718C8.36148 19.5176 9.31973 20.0337 10.3984 20.0337C12.2286 20.0337 13.7131 18.547 13.7195 16.7108V0.959989H16.581ZM10.2569 9.42346V8.52994C9.92678 8.48464 9.59394 8.46191 9.26069 8.46207C5.25064 8.46199 2 11.7255 2 15.7509C2 18.2746 3.27756 20.4988 5.21891 21.8071C3.93848 20.4931 3.14956 18.6945 3.14956 16.7107C3.14956 12.7366 6.31755 9.50517 10.2569 9.42346Z" fill="#00F2EA"/>
</svg>
