<svg width="24" height="24" viewBox="0 0 24 24" fill="none" xmlns="http://www.w3.org/2000/svg">
<g clip-path="url(#clip0_240_150)">
<path d="M24 12C24 18.6274 18.6274 24 12 24C5.37263 24 0 18.6274 0 12C0 12.0029 12 0.0013125 12 0C18.6274 0 24 5.37262 24 12Z" fill="#338AF3"/>
<path d="M5.74023 12.002H9.78752L6.26195 7.82812L5.74023 9.39333V12.002Z" fill="#0052B4"/>
<path d="M12.0001 9.78756L7.82617 5.74023H12.0001L12.0001 9.78756Z" fill="#0052B4"/>
<path d="M11.9668 11.999H11.999C11.999 11.9882 11.999 11.9776 11.999 11.9668C11.9883 11.9776 11.9776 11.9883 11.9668 11.999Z" fill="#F0F0F0"/>
<path d="M12 6.26086C12 4.14937 12 2.76581 12 0H11.998C5.3715 0.001125 0 5.37323 0 12H6.26091V8.47448L9.78642 12H11.968C11.9787 11.9893 11.9894 11.9786 12.0001 11.9679C12.0001 11.1594 12.0001 10.4381 12.0001 9.78647L8.47444 6.26086H12Z" fill="#F0F0F0"/>
<path d="M6.07222 1.56445C4.19539 2.63316 2.63511 4.19344 1.56641 6.07027V11.9993H4.69686V4.695V4.69491H12.0012C12.0012 3.70758 12.0012 2.76698 12.0012 1.56445H6.07222Z" fill="#DA022A"/>
<path d="M12.0009 10.5232L7.73735 6.25977H6.26172V6.25986L12.0008 11.9989H12.0009C12.0009 11.9989 12.0009 10.9813 12.0009 10.5232Z" fill="#DA022A"/>
<path d="M13.0972 19.8262L13.3562 20.6233H14.1944L13.5163 21.116L13.7753 21.9131L13.0972 21.4205L12.4191 21.9131L12.6781 21.116L12 20.6233H12.8381L13.0972 19.8262Z" fill="#FFDA44"/>
<path d="M19.773 14.6094L20.032 15.4065H20.8701L20.1921 15.8992L20.4512 16.6963L19.773 16.2037L19.0949 16.6963L19.354 15.8992L18.6758 15.4065H19.514L19.773 14.6094Z" fill="#FFDA44"/>
<path d="M21.4448 6.7832L21.7039 7.58036H22.542L21.864 8.07302L22.123 8.87012L21.4448 8.37751L20.7668 8.87012L21.0258 8.07302L20.3477 7.58036H21.1858L21.4448 6.7832Z" fill="#FFDA44"/>
<path d="M21.8589 12.5215L22.1179 13.3187H22.9561L22.278 13.8113L22.5371 14.6085L21.8589 14.1158L21.1809 14.6085L21.4399 13.8113L20.7617 13.3187H21.5999L21.8589 12.5215Z" fill="#FFDA44"/>
<path d="M14.298 17.9523L15.045 18.3329L15.6376 17.7402L15.5065 18.568L16.2533 18.9485L15.4254 19.0797L15.2943 19.9075L14.9139 19.1607L14.0859 19.2919L14.6786 18.6992L14.298 17.9523Z" fill="#FFDA44"/>
<path d="M14.298 14.8215L15.045 15.202L15.6376 14.6094L15.5065 15.4372L16.2533 15.8177L15.4254 15.9488L15.2943 16.7767L14.9139 16.0299L14.0859 16.161L14.6786 15.5684L14.298 14.8215Z" fill="#FFDA44"/>
<path d="M16.9074 16.8273L17.6543 17.2079L18.247 16.6152L18.1159 17.443L18.8627 17.8235L18.0348 17.9547L17.9037 18.7826L17.5232 18.0356L16.6953 18.1669L17.288 17.5743L16.9074 16.8273Z" fill="#FFDA44"/>
<path d="M16.9074 10.1262L17.6543 10.5067L18.247 9.91406L18.1159 10.7419L18.8627 11.1224L18.0348 11.2535L17.9037 12.0814L17.5232 11.3346L16.6953 11.4657L17.288 10.8731L16.9074 10.1262Z" fill="#FFDA44"/>
<path d="M19.4367 10.0441L20.1836 10.4247L20.7763 9.83203L20.6452 10.6598L21.392 11.0403L20.5641 11.1715L20.433 11.9993L20.0525 11.2525L19.2246 11.3837L19.8173 10.791L19.4367 10.0441Z" fill="#FFDA44"/>
</g>
<defs>
<clipPath id="clip0_240_150">
<rect width="24" height="24" fill="white"/>
</clipPath>
</defs>
</svg>
