<svg width="20" height="20" viewBox="0 0 20 20" fill="none" xmlns="http://www.w3.org/2000/svg">
<g clip-path="url(#clip0_5_6499)">
<path d="M6.83837 3.19073C7.03168 2.68329 7.29748 2.21613 7.69216 1.83756C9.27086 0.299133 11.8805 0.685753 12.9518 2.61886C13.7573 4.08479 14.6111 5.51851 15.4407 6.96834C16.8261 9.37666 18.2276 11.785 19.5968 14.2014C20.7487 16.2231 19.5002 18.7764 17.2127 19.1227C15.8112 19.3321 14.4983 18.6878 13.7734 17.4313C12.5571 15.3129 11.3328 13.1945 10.1166 11.0842C10.0924 11.0359 10.0602 10.9956 10.028 10.9554C9.89912 10.8507 9.84274 10.6976 9.76219 10.5607C9.22253 9.61024 8.66677 8.66786 8.12711 7.72547C7.78076 7.11332 7.4183 6.50923 7.07196 5.89708C6.75783 5.34936 6.61284 4.75332 6.62895 4.12507C6.65312 3.80288 6.69339 3.4807 6.83837 3.19073Z" fill="#3C8BD9"/>
<path d="M6.83838 3.19073C6.76589 3.4807 6.70145 3.77067 6.68534 4.07674C6.66118 4.75333 6.83033 5.38158 7.16862 5.96957C8.05462 7.49189 8.94063 9.02226 9.81858 10.5526C9.89913 10.6896 9.96356 10.8265 10.0441 10.9554C9.56083 11.793 9.07756 12.6227 8.58623 13.4603C7.90964 14.6283 7.23306 15.8042 6.54841 16.9721C6.5162 16.9721 6.50814 16.956 6.50009 16.9319C6.49203 16.8674 6.5162 16.8111 6.53231 16.7466C6.86254 15.5384 6.58869 14.4672 5.75906 13.5489C5.25163 12.9932 4.60726 12.679 3.86623 12.5743C2.89968 12.4374 2.0459 12.6871 1.28071 13.2912C1.14378 13.3959 1.05518 13.5489 0.89409 13.6295C0.861871 13.6295 0.845762 13.6134 0.837708 13.5892C1.22433 12.9207 1.60289 12.2522 1.98951 11.5836C3.58432 8.81284 5.17913 6.04206 6.782 3.27934C6.79811 3.24712 6.82227 3.22295 6.83838 3.19073Z" fill="#FABC04"/>
<path d="M0.869909 13.6134C1.02295 13.4764 1.16793 13.3314 1.32902 13.2026C3.28629 11.6561 6.22621 12.7757 6.65311 15.2243C6.75782 15.8123 6.70144 16.3761 6.52423 16.9399C6.51618 16.9882 6.50812 17.0285 6.49202 17.0768C6.41952 17.2057 6.35509 17.3426 6.27454 17.4715C5.55768 18.6555 4.50253 19.2435 3.11714 19.1549C1.53039 19.0422 0.281924 17.8501 0.0644497 16.2714C-0.04026 15.5062 0.112777 14.7893 0.507452 14.1289C0.587998 13.9839 0.684653 13.855 0.773254 13.71C0.813527 13.6778 0.797418 13.6134 0.869909 13.6134Z" fill="#34A852"/>
<path d="M0.869943 13.6133C0.837724 13.6456 0.837724 13.7019 0.781342 13.71C0.773288 13.6536 0.805506 13.6214 0.837724 13.5811L0.869943 13.6133Z" fill="#FABC04"/>
<path d="M6.49204 17.0768C6.45983 17.0204 6.49204 16.9802 6.52426 16.9399C6.53232 16.9479 6.54843 16.964 6.55648 16.9721L6.49204 17.0768Z" fill="#E1C025"/>
</g>
<defs>
<clipPath id="clip0_5_6499">
<rect width="20" height="20" fill="white"/>
</clipPath>
</defs>
</svg>
