<svg width="139" height="32" viewBox="0 0 139 32" fill="none" xmlns="http://www.w3.org/2000/svg">
<g clip-path="url(#clip0_240_99)">
<path d="M125.852 31.8344C123.92 31.8344 122.423 31.2881 121.362 30.1955C120.327 29.1028 119.81 27.5867 119.81 25.6473V1.22656H122.709V25.4014C122.709 26.6853 123.008 27.6687 123.607 28.3516C124.205 29.0071 125.104 29.335 126.301 29.335C127.063 29.335 127.716 29.2121 128.26 28.9662L128.465 31.3837C127.621 31.6841 126.75 31.8344 125.852 31.8344Z" fill="#212626"/>
<path d="M114.684 31.8344C112.752 31.8344 111.255 31.2881 110.194 30.1955C109.159 29.1028 108.642 27.5867 108.642 25.6473V1.22656H111.541V25.4014C111.541 26.6853 111.84 27.6687 112.438 28.3516C113.037 29.0071 113.936 29.335 115.132 29.335C115.894 29.335 116.548 29.2121 117.092 28.9662L117.296 31.3837C116.453 31.6841 115.582 31.8344 114.684 31.8344Z" fill="#212626"/>
<path d="M99.1089 10.0771H102.007V31.6297H99.1089V10.0771Z" fill="#212626"/>
<path d="M84.2994 20.8123L79.2377 25.4833V31.6296H76.3395V1.22656H79.2377V21.8366L92.0552 10.077H95.6474L86.4629 18.8865L96.5042 31.6296H92.9533L84.2994 20.8123Z" fill="#212626"/>
<path d="M63.5536 31.8354C61.8119 31.8354 60.1382 31.5895 58.5326 31.0978C56.9543 30.5788 55.7161 29.9369 54.818 29.1721L56.1243 26.8775C57.0223 27.5877 58.1517 28.175 59.5123 28.6393C60.873 29.0764 62.2882 29.295 63.7577 29.295C65.7171 29.295 67.1593 28.9945 68.0846 28.3935C69.037 27.7653 69.5133 26.8911 69.5133 25.7712C69.5133 24.9789 69.2548 24.3644 68.7377 23.9273C68.2206 23.4629 67.5675 23.1215 66.7783 22.9029C65.9891 22.6571 64.9414 22.4249 63.6352 22.2064C61.8935 21.8785 60.492 21.5508 59.4307 21.223C58.3694 20.8679 57.4578 20.2806 56.6958 19.4611C55.961 18.6416 55.5936 17.508 55.5936 16.0602C55.5936 14.2574 56.342 12.7822 57.8388 11.6349C59.3354 10.4877 61.4173 9.91406 64.0842 9.91406C65.4721 9.91406 66.86 10.1052 68.2479 10.4877C69.6357 10.8428 70.7787 11.3209 71.6768 11.9218L70.4114 14.2574C68.6424 13.0281 66.5334 12.4135 64.0842 12.4135C62.2337 12.4135 60.8322 12.7413 59.8798 13.3969C58.9544 14.0525 58.4918 14.9129 58.4918 15.9782C58.4918 16.7978 58.7504 17.4533 59.2674 17.945C59.8117 18.4367 60.4784 18.8055 61.2676 19.0514C62.0568 19.2699 63.1453 19.502 64.5333 19.7479C66.2477 20.0757 67.622 20.4035 68.656 20.7313C69.6902 21.0591 70.5746 21.619 71.3093 22.4113C72.0441 23.2034 72.4115 24.296 72.4115 25.6892C72.4115 27.574 71.6223 29.0764 70.0439 30.1963C68.4928 31.289 66.3293 31.8354 63.5536 31.8354Z" fill="#212626"/>
<path d="M100.719 6.7171C102.56 6.7171 104.053 5.21867 104.053 3.37027C104.053 1.52186 102.56 0.0234375 100.719 0.0234375C98.8772 0.0234375 97.3844 1.52186 97.3844 3.37027C97.3844 5.21867 98.8772 6.7171 100.719 6.7171Z" fill="#2A32ED"/>
<path d="M135.332 31.844C137.173 31.844 138.666 30.3456 138.666 28.4972C138.666 26.6488 137.173 25.1504 135.332 25.1504C133.491 25.1504 131.998 26.6488 131.998 28.4972C131.998 30.3456 133.491 31.844 135.332 31.844Z" fill="#2A32ED"/>
<path d="M50.7738 1.22656V31.6296H44.6916V29.0892C43.1132 31.0013 40.8273 31.9573 37.8338 31.9573C35.7656 31.9573 33.8879 31.493 32.2007 30.5642C30.5406 29.6355 29.2344 28.3106 28.282 26.5897C27.3294 24.8688 26.8532 22.8747 26.8532 20.6074C26.8532 18.3402 27.3294 16.3461 28.282 14.6252C29.2344 12.9043 30.5406 11.5794 32.2007 10.6507C33.8879 9.72195 35.7656 9.25749 37.8338 9.25749C40.6368 9.25749 42.8275 10.1454 44.4058 11.9209V1.22656H50.7738ZM38.936 26.7126C40.5416 26.7126 41.875 26.1663 42.9363 25.0736C43.9976 23.9536 44.5284 22.4649 44.5284 20.6074C44.5284 18.7499 43.9976 17.2749 42.9363 16.1822C41.875 15.0623 40.5416 14.5023 38.936 14.5023C37.3031 14.5023 35.9561 15.0623 34.8947 16.1822C33.8334 17.2749 33.3028 18.7499 33.3028 20.6074C33.3028 22.4649 33.8334 23.9536 34.8947 25.0736C35.9561 26.1663 37.3031 26.7126 38.936 26.7126Z" fill="#212626"/>
<path d="M23.9378 9.58558V31.6298H17.8556V29.0894C16.2772 31.0015 13.9913 31.9576 10.9978 31.9576C8.92963 31.9576 7.05191 31.4932 5.36468 30.5644C3.70466 29.6357 2.39842 28.3109 1.44595 26.5899C0.493484 24.869 0.0172501 22.8749 0.0172501 20.6076C0.0172501 18.3404 0.493484 16.3464 1.44595 14.6254C2.39842 12.9045 3.70466 11.5797 5.36468 10.6509C7.05191 9.72218 8.92963 9.25781 10.9978 9.25781C13.8008 9.25781 15.9915 10.1456 17.5699 11.9211V9.58558H23.9378ZM12.1 26.7129C13.7056 26.7129 15.0391 26.1665 16.1004 25.0739C17.1616 23.954 17.6924 22.4652 17.6924 20.6076C17.6924 18.7502 17.1616 17.2751 16.1004 16.1824C15.0391 15.0625 13.7056 14.5025 12.1 14.5025C10.4672 14.5025 9.12012 15.0625 8.0588 16.1824C6.99748 17.2751 6.46683 18.7502 6.46683 20.6076C6.46683 22.4652 6.99748 23.954 8.0588 25.0739C9.12012 26.1665 10.4672 26.7129 12.1 26.7129Z" fill="#212626"/>
</g>
<defs>
<clipPath id="clip0_240_99">
<rect width="138.667" height="32" fill="white"/>
</clipPath>
</defs>
</svg>
